<svg width="512" height="512" viewBox="0 0 512 512" fill="none" xmlns="http://www.w3.org/2000/svg">
  <defs>
    <linearGradient id="ryoBg" x1="82" y1="72" x2="430" y2="432" gradientUnits="userSpaceOnUse">
      <stop offset="0%" stop-color="#1fd26b" />
      <stop offset="100%" stop-color="#0ea84f" />
    </linearGradient>
    <linearGradient id="ryoSheen" x1="120" y1="112" x2="410" y2="390" gradientUnits="userSpaceOnUse">
      <stop offset="0%" stop-color="#ffffff" stop-opacity="0.16" />
      <stop offset="100%" stop-color="#ffffff" stop-opacity="0.04" />
    </linearGradient>
  </defs>
  <rect x="40" y="40" width="432" height="432" rx="88" fill="url(#ryoBg)" />
  <rect x="40" y="40" width="432" height="432" rx="88" fill="url(#ryoSheen)" />
  <path d="M138 351V161C138 145 151 132 167 132H238C274 132 303 160 303 195C303 229 277 257 243 260H205L300 351" stroke="#f7fff9" stroke-width="34" stroke-linecap="round" stroke-linejoin="round" fill="none" />
  <path d="M215 260L320 351L406 187" stroke="#f7fff9" stroke-width="34" stroke-linecap="round" stroke-linejoin="round" fill="none" />
  <path d="M187 187H240" stroke="#f7fff9" stroke-width="28" stroke-linecap="round" stroke-linejoin="round" fill="none" opacity="0.92" />
  <circle cx="360" cy="164" r="34" stroke="#f7fff9" stroke-width="18" fill="none" />
  <path d="M360 146V126" stroke="#f7fff9" stroke-width="14" stroke-linecap="round" />
  <path d="M360 164L374 176" stroke="#f7fff9" stroke-width="14" stroke-linecap="round" />
</svg>